<?xml version="1.0" encoding="UTF-8" standalone="no"?>
<svg
   fill="#000000"
   version="1.1"
   width="64px"
   height="64px"
   viewBox="0 0 512 512"
   xml:space="preserve"
   id="svg1"
   sodipodi:docname="twitter.svg"
   inkscape:export-filename="twitter.svg"
   inkscape:export-xdpi="36"
   inkscape:export-ydpi="36"
   inkscape:version="1.4 (86a8ad7, 2024-10-11)"
   xmlns:inkscape="http://www.inkscape.org/namespaces/inkscape"
   xmlns:sodipodi="http://sodipodi.sourceforge.net/DTD/sodipodi-0.dtd"
   xmlns="http://www.w3.org/2000/svg"
   xmlns:svg="http://www.w3.org/2000/svg"><defs
     id="defs1" /><sodipodi:namedview
     id="namedview1"
     pagecolor="#ffffff"
     bordercolor="#000000"
     borderopacity="0.25"
     inkscape:showpageshadow="2"
     inkscape:pageopacity="0.0"
     inkscape:pagecheckerboard="0"
     inkscape:deskcolor="#d1d1d1"
     inkscape:zoom="13.359375"
     inkscape:cx="31.962573"
     inkscape:cy="32"
     inkscape:window-width="1920"
     inkscape:window-height="1057"
     inkscape:window-x="-8"
     inkscape:window-y="-8"
     inkscape:window-maximized="1"
     inkscape:current-layer="svg1" /><g
     id="SVGRepo_bgCarrier"
     stroke-width="0" /><g
     id="SVGRepo_tracerCarrier"
     stroke-linecap="round"
     stroke-linejoin="round" /><g
     id="SVGRepo_iconCarrier"
     inkscape:export-filename="SVGRepo_iconCarrier.svg"
     inkscape:export-xdpi="36"
     inkscape:export-ydpi="36"> <g
   id="7935ec95c421cee6d86eb22ecd12f847"> <path
   style="display: inline;"
   d="M459.186,151.787c0.203,4.501,0.305,9.023,0.305,13.565 c0,138.542-105.461,298.285-298.274,298.285c-59.209,0-114.322-17.357-160.716-47.104c8.212,0.973,16.546,1.47,25.012,1.47 c49.121,0,94.318-16.759,130.209-44.884c-45.887-0.841-84.596-31.154-97.938-72.804c6.408,1.227,12.968,1.886,19.73,1.886 c9.55,0,18.816-1.287,27.617-3.68c-47.955-9.633-84.1-52.001-84.1-102.795c0-0.446,0-0.882,0.011-1.318 c14.133,7.847,30.294,12.562,47.488,13.109c-28.134-18.796-46.637-50.885-46.637-87.262c0-19.212,5.16-37.218,14.193-52.7 c51.707,63.426,128.941,105.156,216.072,109.536c-1.784-7.675-2.718-15.674-2.718-23.896c0-57.891,46.941-104.832,104.832-104.832 c30.173,0,57.404,12.734,76.525,33.102c23.887-4.694,46.313-13.423,66.569-25.438c-7.827,24.485-24.434,45.025-46.089,58.002 c21.209-2.535,41.426-8.171,60.222-16.505C497.448,118.542,479.666,137.004,459.186,151.787z"
   id="path1"> </path> </g> </g></svg>
